<svg xmlns="http://www.w3.org/2000/svg" xmlns:xlink="http://www.w3.org/1999/xlink" width="200" zoomAndPan="magnify" viewBox="0 0 150 131.249995" height="175" preserveAspectRatio="xMidYMid meet" version="1.0"><defs><g/><clipPath id="id1"><path d="M 4 11 L 100.964844 11 L 100.964844 121.339844 L 4 121.339844 Z M 4 11 " clip-rule="nonzero"/></clipPath></defs><g clip-path="url(#id1)"><path fill="#004aad" d="M 93.683594 18.230469 C 89.351562 14.09375 83.542969 11.789062 77.5625 11.808594 C 71.382812 11.832031 65.578125 14.253906 61.207031 18.632812 L 52.871094 26.988281 L 44.742188 18.84375 C 35.691406 9.773438 20.949219 9.488281 11.808594 18.472656 C 2.578125 27.542969 2.523438 42.449219 11.644531 51.589844 L 55.78125 95.816406 C 60.820312 100.867188 61.054688 109.085938 56.117188 114.230469 C 51.0625 119.492188 42.671875 119.554688 37.539062 114.410156 L 26.609375 103.457031 C 26.148438 102.992188 26.101562 102.261719 26.496094 101.742188 C 28.109375 99.613281 29.003906 96.910156 28.804688 93.996094 C 28.410156 88.242188 23.714844 83.617188 17.96875 83.316406 C 11.316406 82.96875 5.796875 88.339844 5.886719 94.953125 C 5.96875 101.082031 10.949219 106.136719 17.0625 106.289062 C 19.03125 106.339844 20.894531 105.890625 22.535156 105.054688 C 23.03125 104.804688 23.636719 104.910156 24.027344 105.304688 L 35.324219 116.625 C 38.46875 119.777344 42.601562 121.351562 46.734375 121.351562 C 50.863281 121.351562 54.996094 119.777344 58.140625 116.625 C 64.433594 110.320312 64.433594 100.0625 58.140625 93.757812 L 13.855469 49.375 C 6.007812 41.511719 6.007812 28.714844 13.855469 20.851562 C 21.707031 12.984375 34.476562 12.984375 42.324219 20.851562 L 51.722656 30.269531 C 52.039062 30.585938 52.457031 30.734375 52.871094 30.726562 C 53.285156 30.734375 53.699219 30.585938 54.015625 30.269531 L 63.230469 21.039062 C 67.050781 17.207031 72.207031 14.953125 77.609375 14.941406 C 83.003906 14.933594 88.074219 17.03125 91.886719 20.851562 C 95.695312 24.667969 97.789062 29.742188 97.78125 35.144531 C 97.773438 40.5625 95.519531 45.734375 91.699219 49.566406 L 88.71875 52.550781 C 88.476562 52.796875 88.140625 52.933594 87.796875 52.933594 L 78.917969 52.933594 C 78.425781 52.933594 77.972656 52.652344 77.753906 52.214844 L 73.464844 43.621094 C 72.988281 42.65625 71.617188 42.65625 71.136719 43.621094 L 63.769531 58.375 C 63.289062 59.339844 61.917969 59.339844 61.441406 58.375 L 58.921875 53.332031 C 58.445312 52.367188 57.074219 52.367188 56.59375 53.332031 L 54.078125 58.375 C 53.597656 59.335938 52.230469 59.335938 51.75 58.375 L 44.386719 43.613281 C 43.90625 42.652344 42.535156 42.652344 42.058594 43.613281 L 37.769531 52.207031 C 37.546875 52.648438 37.097656 52.929688 36.605469 52.929688 L 28.75 52.929688 C 27.890625 52.929688 27.148438 53.589844 27.121094 54.449219 C 27.09375 55.335938 27.804688 56.0625 28.683594 56.0625 L 38.539062 56.0625 C 39.03125 56.0625 39.484375 55.78125 39.703125 55.339844 L 42.058594 50.617188 C 42.535156 49.65625 43.90625 49.65625 44.386719 50.617188 L 51.75 65.375 C 52.230469 66.339844 53.597656 66.339844 54.078125 65.375 L 56.59375 60.332031 C 57.074219 59.371094 58.445312 59.371094 58.921875 60.332031 L 61.441406 65.378906 C 61.917969 66.34375 63.289062 66.34375 63.769531 65.378906 L 71.132812 50.621094 C 71.613281 49.660156 72.980469 49.65625 73.460938 50.621094 L 75.820312 55.34375 C 76.039062 55.785156 76.492188 56.0625 76.984375 56.0625 L 88.976562 56.0625 C 88.976562 56.0625 88.976562 56.0625 88.980469 56.0625 L 88.984375 56.0625 C 89.078125 56.0625 89.171875 56.054688 89.265625 56.039062 C 89.269531 56.039062 89.277344 56.035156 89.28125 56.035156 C 89.375 56.015625 89.464844 55.988281 89.550781 55.957031 C 89.558594 55.953125 89.566406 55.949219 89.574219 55.949219 C 89.660156 55.910156 89.746094 55.867188 89.824219 55.816406 C 89.832031 55.8125 89.839844 55.808594 89.847656 55.804688 C 89.929688 55.746094 90.007812 55.683594 90.082031 55.613281 C 90.082031 55.613281 90.082031 55.613281 90.085938 55.609375 L 93.867188 51.820312 C 98.34375 47.335938 100.957031 41.261719 100.90625 34.917969 C 100.855469 28.574219 98.289062 22.628906 93.683594 18.230469 Z M 9.011719 94.796875 C 9.011719 90.183594 12.757812 86.433594 17.359375 86.433594 C 21.957031 86.433594 25.703125 90.1875 25.703125 94.796875 C 25.703125 99.410156 21.957031 103.160156 17.359375 103.160156 C 12.757812 103.160156 9.011719 99.410156 9.011719 94.796875 Z M 9.011719 94.796875 " fill-opacity="1" fill-rule="nonzero"/></g><g fill="#004aad" fill-opacity="1"><g transform="translate(56.006925, 82.856609)"><g><path d="M 1.640625 -12.484375 L 6.765625 -12.484375 C 8.628906 -12.484375 10.171875 -11.894531 11.390625 -10.71875 C 12.609375 -9.539062 13.21875 -8.046875 13.21875 -6.234375 C 13.21875 -4.429688 12.601562 -2.941406 11.375 -1.765625 C 10.15625 -0.585938 8.597656 0 6.703125 0 L 1.640625 0 Z M 3.75 -10.59375 L 3.75 -1.890625 L 6.8125 -1.890625 C 8.039062 -1.890625 9.0625 -2.296875 9.875 -3.109375 C 10.6875 -3.929688 11.09375 -4.972656 11.09375 -6.234375 C 11.09375 -7.492188 10.671875 -8.535156 9.828125 -9.359375 C 8.992188 -10.179688 7.960938 -10.59375 6.734375 -10.59375 Z M 3.75 -10.59375 "/></g></g></g><g fill="#004aad" fill-opacity="1"><g transform="translate(72.206244, 82.856609)"><g><path d="M 2.515625 -10.734375 C 3.785156 -11.941406 5.351562 -12.546875 7.21875 -12.546875 C 9.09375 -12.546875 10.664062 -11.941406 11.9375 -10.734375 C 13.207031 -9.523438 13.84375 -8.023438 13.84375 -6.234375 C 13.84375 -4.453125 13.207031 -2.953125 11.9375 -1.734375 C 10.664062 -0.515625 9.09375 0.09375 7.21875 0.09375 C 5.351562 0.09375 3.785156 -0.515625 2.515625 -1.734375 C 1.242188 -2.953125 0.609375 -4.453125 0.609375 -6.234375 C 0.609375 -8.023438 1.242188 -9.523438 2.515625 -10.734375 Z M 7.25 -10.65625 C 6.007812 -10.65625 4.945312 -10.226562 4.0625 -9.375 C 3.1875 -8.519531 2.75 -7.472656 2.75 -6.234375 C 2.75 -5.003906 3.191406 -3.957031 4.078125 -3.09375 C 4.960938 -2.226562 6.015625 -1.796875 7.234375 -1.796875 C 8.460938 -1.796875 9.507812 -2.226562 10.375 -3.09375 C 11.25 -3.957031 11.6875 -5.003906 11.6875 -6.234375 C 11.6875 -7.472656 11.25 -8.519531 10.375 -9.375 C 9.507812 -10.226562 8.46875 -10.65625 7.25 -10.65625 Z M 7.25 -10.65625 "/></g></g></g><g fill="#004aad" fill-opacity="1"><g transform="translate(89.029955, 82.856609)"><g><path d="M 7.171875 -12.546875 C 8.054688 -12.546875 8.914062 -12.375 9.75 -12.03125 C 10.59375 -11.695312 11.316406 -11.222656 11.921875 -10.609375 L 10.6875 -9.078125 C 10.238281 -9.566406 9.703125 -9.953125 9.078125 -10.234375 C 8.460938 -10.523438 7.835938 -10.671875 7.203125 -10.671875 C 5.953125 -10.671875 4.894531 -10.242188 4.03125 -9.390625 C 3.175781 -8.546875 2.75 -7.507812 2.75 -6.28125 C 2.75 -5.039062 3.175781 -3.992188 4.03125 -3.140625 C 4.894531 -2.296875 5.953125 -1.875 7.203125 -1.875 C 8.503906 -1.875 9.664062 -2.367188 10.6875 -3.359375 L 11.9375 -1.96875 C 11.289062 -1.332031 10.539062 -0.828125 9.6875 -0.453125 C 8.832031 -0.0859375 7.972656 0.09375 7.109375 0.09375 C 5.273438 0.09375 3.734375 -0.515625 2.484375 -1.734375 C 1.234375 -2.953125 0.609375 -4.460938 0.609375 -6.265625 C 0.609375 -8.035156 1.238281 -9.523438 2.5 -10.734375 C 3.769531 -11.941406 5.328125 -12.546875 7.171875 -12.546875 Z M 7.171875 -12.546875 "/></g></g></g><g fill="#004aad" fill-opacity="1"><g transform="translate(103.837794, 82.856609)"><g><path d="M 9.703125 -2.8125 L 3.40625 -2.8125 L 2.21875 0 L 0.015625 0 L 5.53125 -12.484375 L 7.6875 -12.484375 L 13.15625 0 L 10.90625 0 Z M 8.90625 -4.6875 L 6.546875 -10.25 L 4.1875 -4.6875 Z M 8.90625 -4.6875 "/></g></g></g><g fill="#004aad" fill-opacity="1"><g transform="translate(119.37706, 82.856609)"><g><path d="M 1.640625 -12.484375 L 6.625 -12.484375 C 8.1875 -12.484375 9.398438 -12.113281 10.265625 -11.375 C 11.128906 -10.632812 11.5625 -9.582031 11.5625 -8.21875 C 11.5625 -6.8125 11.128906 -5.71875 10.265625 -4.9375 C 9.398438 -4.15625 8.1875 -3.765625 6.625 -3.765625 L 3.75 -3.765625 L 3.75 0 L 1.640625 0 Z M 3.75 -10.59375 L 3.75 -5.65625 L 6.53125 -5.65625 C 8.539062 -5.65625 9.546875 -6.492188 9.546875 -8.171875 C 9.546875 -9.785156 8.539062 -10.59375 6.53125 -10.59375 Z M 3.75 -10.59375 "/></g></g></g><g fill="#004aad" fill-opacity="1"><g transform="translate(133.756754, 82.856609)"><g><path d="M 1.640625 -12.484375 L 6.625 -12.484375 C 8.1875 -12.484375 9.398438 -12.113281 10.265625 -11.375 C 11.128906 -10.632812 11.5625 -9.582031 11.5625 -8.21875 C 11.5625 -6.8125 11.128906 -5.71875 10.265625 -4.9375 C 9.398438 -4.15625 8.1875 -3.765625 6.625 -3.765625 L 3.75 -3.765625 L 3.75 0 L 1.640625 0 Z M 3.75 -10.59375 L 3.75 -5.65625 L 6.53125 -5.65625 C 8.539062 -5.65625 9.546875 -6.492188 9.546875 -8.171875 C 9.546875 -9.785156 8.539062 -10.59375 6.53125 -10.59375 Z M 3.75 -10.59375 "/></g></g></g></svg>