<svg xmlns="http://www.w3.org/2000/svg" xmlns:xlink="http://www.w3.org/1999/xlink" width="200" zoomAndPan="magnify" viewBox="0 0 150 131.249995" height="175" preserveAspectRatio="xMidYMid meet" version="1.0"><defs><g/><clipPath id="id1"><path d="M 6 13 L 99.441406 13 L 99.441406 119.1875 L 6 119.1875 Z M 6 13 " clip-rule="nonzero"/></clipPath></defs><g clip-path="url(#id1)"><path fill="#ffffff" d="M 92.378906 19.511719 C 88.179688 15.515625 82.550781 13.28125 76.746094 13.304688 C 70.757812 13.324219 65.125 15.667969 60.886719 19.902344 L 52.804688 27.976562 L 44.921875 20.105469 C 36.144531 11.335938 21.851562 11.058594 12.988281 19.746094 C 4.035156 28.515625 3.984375 42.925781 12.828125 51.757812 L 55.628906 94.515625 C 60.511719 99.394531 60.742188 107.339844 55.953125 112.3125 C 51.050781 117.398438 42.914062 117.457031 37.9375 112.488281 L 27.339844 101.898438 C 26.890625 101.449219 26.84375 100.746094 27.230469 100.238281 C 28.796875 98.183594 29.660156 95.570312 29.46875 92.753906 C 29.085938 87.191406 24.535156 82.71875 18.960938 82.429688 C 12.507812 82.09375 7.160156 87.285156 7.246094 93.679688 C 7.324219 99.601562 12.15625 104.488281 18.082031 104.636719 C 19.992188 104.6875 21.796875 104.25 23.386719 103.445312 C 23.871094 103.199219 24.457031 103.304688 24.835938 103.683594 L 35.789062 114.628906 C 38.839844 117.675781 42.847656 119.199219 46.851562 119.199219 C 50.859375 119.199219 54.867188 117.671875 57.917969 114.628906 C 64.015625 108.535156 64.015625 98.617188 57.917969 92.523438 L 14.972656 49.617188 C 7.363281 42.015625 7.363281 29.648438 14.972656 22.042969 C 22.585938 14.441406 34.96875 14.441406 42.578125 22.042969 L 51.691406 31.152344 C 52 31.457031 52.402344 31.601562 52.804688 31.589844 C 53.207031 31.601562 53.609375 31.457031 53.914062 31.152344 L 62.851562 22.226562 C 66.554688 18.523438 71.558594 16.34375 76.796875 16.332031 C 82.023438 16.324219 86.941406 18.351562 90.636719 22.042969 C 94.332031 25.734375 96.363281 30.640625 96.355469 35.863281 C 96.347656 41.097656 94.160156 46.097656 90.457031 49.804688 L 87.570312 52.6875 C 87.332031 52.925781 87.007812 53.058594 86.671875 53.058594 L 78.0625 53.058594 C 77.585938 53.058594 77.148438 52.789062 76.933594 52.363281 L 72.777344 44.054688 C 72.3125 43.125 70.984375 43.125 70.519531 44.054688 L 63.371094 58.320312 C 62.90625 59.25 61.578125 59.25 61.113281 58.320312 L 58.675781 53.441406 C 58.210938 52.511719 56.882812 52.511719 56.417969 53.441406 L 53.976562 58.316406 C 53.511719 59.25 52.183594 59.25 51.71875 58.316406 L 44.578125 44.050781 C 44.113281 43.117188 42.785156 43.117188 42.320312 44.050781 L 38.160156 52.355469 C 37.945312 52.785156 37.511719 53.054688 37.03125 53.054688 L 29.414062 53.054688 C 28.582031 53.054688 27.859375 53.691406 27.835938 54.523438 C 27.808594 55.378906 28.496094 56.082031 29.351562 56.082031 L 38.90625 56.082031 C 39.382812 56.082031 39.824219 55.8125 40.035156 55.386719 L 42.320312 50.820312 C 42.785156 49.890625 44.113281 49.890625 44.578125 50.820312 L 51.71875 65.085938 C 52.183594 66.019531 53.511719 66.019531 53.976562 65.085938 L 56.417969 60.210938 C 56.882812 59.28125 58.210938 59.28125 58.675781 60.210938 L 61.113281 65.089844 C 61.578125 66.019531 62.90625 66.019531 63.371094 65.089844 L 70.511719 50.824219 C 70.976562 49.894531 72.308594 49.890625 72.773438 50.824219 L 75.058594 55.386719 C 75.273438 55.8125 75.710938 56.082031 76.1875 56.082031 L 87.824219 56.082031 C 87.917969 56.082031 88.007812 56.074219 88.097656 56.058594 C 88.101562 56.058594 88.109375 56.054688 88.113281 56.054688 C 88.203125 56.039062 88.292969 56.011719 88.375 55.980469 C 88.382812 55.976562 88.390625 55.976562 88.398438 55.972656 C 88.480469 55.9375 88.5625 55.894531 88.636719 55.847656 C 88.644531 55.839844 88.652344 55.839844 88.660156 55.835938 C 88.742188 55.777344 88.816406 55.71875 88.886719 55.648438 C 88.890625 55.648438 88.890625 55.648438 88.890625 55.644531 L 92.558594 51.980469 C 96.898438 47.644531 99.433594 41.773438 99.386719 35.640625 C 99.335938 29.511719 96.847656 23.765625 92.378906 19.511719 Z M 10.277344 93.527344 C 10.277344 89.070312 13.90625 85.441406 18.367188 85.441406 C 22.828125 85.441406 26.460938 89.070312 26.460938 93.527344 C 26.460938 97.988281 22.828125 101.613281 18.367188 101.613281 C 13.90625 101.613281 10.277344 97.988281 10.277344 93.527344 Z M 10.277344 93.527344 " fill-opacity="1" fill-rule="nonzero"/></g><g fill="#ffffff" fill-opacity="1"><g transform="translate(55.950358, 84.904766)"><g><path d="M 1.59375 -12.140625 L 6.578125 -12.140625 C 8.390625 -12.140625 9.890625 -11.566406 11.078125 -10.421875 C 12.265625 -9.273438 12.859375 -7.820312 12.859375 -6.0625 C 12.859375 -4.3125 12.257812 -2.863281 11.0625 -1.71875 C 9.875 -0.570312 8.359375 0 6.515625 0 L 1.59375 0 Z M 3.640625 -10.296875 L 3.640625 -1.84375 L 6.625 -1.84375 C 7.8125 -1.84375 8.800781 -2.238281 9.59375 -3.03125 C 10.382812 -3.820312 10.78125 -4.828125 10.78125 -6.046875 C 10.78125 -7.273438 10.375 -8.289062 9.5625 -9.09375 C 8.75 -9.894531 7.738281 -10.296875 6.53125 -10.296875 Z M 3.640625 -10.296875 "/></g></g></g><g fill="#ffffff" fill-opacity="1"><g transform="translate(71.698252, 84.904766)"><g><path d="M 2.4375 -10.421875 C 3.675781 -11.597656 5.203125 -12.1875 7.015625 -12.1875 C 8.835938 -12.1875 10.363281 -11.597656 11.59375 -10.421875 C 12.832031 -9.253906 13.453125 -7.800781 13.453125 -6.0625 C 13.453125 -4.332031 12.832031 -2.875 11.59375 -1.6875 C 10.363281 -0.5 8.835938 0.09375 7.015625 0.09375 C 5.203125 0.09375 3.675781 -0.5 2.4375 -1.6875 C 1.207031 -2.875 0.59375 -4.332031 0.59375 -6.0625 C 0.59375 -7.800781 1.207031 -9.253906 2.4375 -10.421875 Z M 7.046875 -10.359375 C 5.835938 -10.359375 4.804688 -9.941406 3.953125 -9.109375 C 3.097656 -8.285156 2.671875 -7.269531 2.671875 -6.0625 C 2.671875 -4.863281 3.097656 -3.84375 3.953125 -3 C 4.816406 -2.164062 5.84375 -1.75 7.03125 -1.75 C 8.226562 -1.75 9.25 -2.164062 10.09375 -3 C 10.9375 -3.84375 11.359375 -4.863281 11.359375 -6.0625 C 11.359375 -7.269531 10.9375 -8.285156 10.09375 -9.109375 C 9.25 -9.941406 8.234375 -10.359375 7.046875 -10.359375 Z M 7.046875 -10.359375 "/></g></g></g><g fill="#ffffff" fill-opacity="1"><g transform="translate(88.053171, 84.904766)"><g><path d="M 6.96875 -12.1875 C 7.820312 -12.1875 8.65625 -12.019531 9.46875 -11.6875 C 10.289062 -11.363281 10.992188 -10.90625 11.578125 -10.3125 L 10.390625 -8.828125 C 9.953125 -9.304688 9.429688 -9.679688 8.828125 -9.953125 C 8.222656 -10.234375 7.613281 -10.375 7 -10.375 C 5.789062 -10.375 4.765625 -9.957031 3.921875 -9.125 C 3.085938 -8.300781 2.671875 -7.296875 2.671875 -6.109375 C 2.671875 -4.898438 3.085938 -3.882812 3.921875 -3.0625 C 4.765625 -2.238281 5.789062 -1.828125 7 -1.828125 C 8.257812 -1.828125 9.390625 -2.304688 10.390625 -3.265625 L 11.609375 -1.90625 C 10.984375 -1.289062 10.253906 -0.800781 9.421875 -0.4375 C 8.585938 -0.0820312 7.75 0.09375 6.90625 0.09375 C 5.125 0.09375 3.625 -0.5 2.40625 -1.6875 C 1.195312 -2.875 0.59375 -4.34375 0.59375 -6.09375 C 0.59375 -7.8125 1.207031 -9.253906 2.4375 -10.421875 C 3.664062 -11.597656 5.175781 -12.1875 6.96875 -12.1875 Z M 6.96875 -12.1875 "/></g></g></g><g fill="#ffffff" fill-opacity="1"><g transform="translate(102.448276, 84.904766)"><g><path d="M 9.4375 -2.734375 L 3.3125 -2.734375 L 2.15625 0 L 0.015625 0 L 5.375 -12.140625 L 7.46875 -12.140625 L 12.78125 0 L 10.59375 0 Z M 8.65625 -4.5625 L 6.359375 -9.953125 L 4.078125 -4.5625 Z M 8.65625 -4.5625 "/></g></g></g><g fill="#ffffff" fill-opacity="1"><g transform="translate(117.554459, 84.904766)"><g><path d="M 1.59375 -12.140625 L 6.4375 -12.140625 C 7.957031 -12.140625 9.132812 -11.773438 9.96875 -11.046875 C 10.8125 -10.328125 11.234375 -9.3125 11.234375 -8 C 11.234375 -6.625 10.8125 -5.554688 9.96875 -4.796875 C 9.132812 -4.035156 7.957031 -3.65625 6.4375 -3.65625 L 3.640625 -3.65625 L 3.640625 0 L 1.59375 0 Z M 3.640625 -10.296875 L 3.640625 -5.5 L 6.34375 -5.5 C 8.300781 -5.5 9.28125 -6.3125 9.28125 -7.9375 C 9.28125 -9.507812 8.300781 -10.296875 6.34375 -10.296875 Z M 3.640625 -10.296875 "/></g></g></g><g fill="#ffffff" fill-opacity="1"><g transform="translate(131.533322, 84.904766)"><g><path d="M 1.59375 -12.140625 L 6.4375 -12.140625 C 7.957031 -12.140625 9.132812 -11.773438 9.96875 -11.046875 C 10.8125 -10.328125 11.234375 -9.3125 11.234375 -8 C 11.234375 -6.625 10.8125 -5.554688 9.96875 -4.796875 C 9.132812 -4.035156 7.957031 -3.65625 6.4375 -3.65625 L 3.640625 -3.65625 L 3.640625 0 L 1.59375 0 Z M 3.640625 -10.296875 L 3.640625 -5.5 L 6.34375 -5.5 C 8.300781 -5.5 9.28125 -6.3125 9.28125 -7.9375 C 9.28125 -9.507812 8.300781 -10.296875 6.34375 -10.296875 Z M 3.640625 -10.296875 "/></g></g></g></svg>