<svg xmlns="http://www.w3.org/2000/svg" xmlns:xlink="http://www.w3.org/1999/xlink" width="200" zoomAndPan="magnify" viewBox="0 0 150 131.249995" height="175" preserveAspectRatio="xMidYMid meet" version="1.0"><defs><clipPath id="86ff914f80"><path d="M 20 2 L 132.304688 2 L 132.304688 130.503906 L 20 130.503906 Z M 20 2 " clip-rule="nonzero"/></clipPath></defs><g clip-path="url(#86ff914f80)"><path fill="#ffffff" d="M 123.804688 10.214844 C 118.753906 5.386719 111.976562 2.695312 104.996094 2.71875 C 97.789062 2.746094 91.015625 5.574219 85.914062 10.683594 L 76.191406 20.425781 L 66.710938 10.925781 C 56.148438 0.34375 38.953125 0.0117188 28.289062 10.492188 C 17.515625 21.074219 17.453125 38.46875 28.097656 49.128906 L 79.589844 100.726562 C 85.464844 106.613281 85.738281 116.203125 79.976562 122.203125 C 74.082031 128.34375 64.292969 128.414062 58.308594 122.414062 L 45.550781 109.636719 C 45.015625 109.097656 44.960938 108.242188 45.421875 107.632812 C 47.304688 105.152344 48.347656 102 48.113281 98.601562 C 47.65625 91.886719 42.179688 86.492188 35.476562 86.140625 C 27.710938 85.738281 21.273438 92 21.375 99.71875 C 21.472656 106.863281 27.285156 112.761719 34.414062 112.941406 C 36.714844 113 38.886719 112.472656 40.800781 111.503906 C 41.378906 111.207031 42.085938 111.332031 42.542969 111.792969 L 55.71875 125 C 59.390625 128.675781 64.210938 130.511719 69.03125 130.511719 C 73.851562 130.511719 78.675781 128.671875 82.34375 125 C 89.679688 117.644531 89.679688 105.675781 82.34375 98.324219 L 30.675781 46.546875 C 21.519531 37.371094 21.519531 22.441406 30.675781 13.269531 C 39.832031 4.09375 54.734375 4.09375 63.886719 13.269531 L 74.855469 24.257812 C 75.222656 24.625 75.707031 24.800781 76.191406 24.789062 C 76.675781 24.800781 77.160156 24.625 77.527344 24.257812 L 88.277344 13.488281 C 92.734375 9.019531 98.753906 6.390625 105.054688 6.375 C 111.347656 6.363281 117.261719 8.8125 121.710938 13.269531 C 126.152344 17.722656 128.59375 23.644531 128.585938 29.945312 C 128.578125 36.261719 125.949219 42.296875 121.492188 46.769531 L 118.015625 50.25 C 117.730469 50.535156 117.34375 50.695312 116.9375 50.695312 L 106.582031 50.695312 C 106.007812 50.695312 105.476562 50.371094 105.222656 49.855469 L 100.21875 39.832031 C 99.660156 38.707031 98.0625 38.707031 97.503906 39.832031 L 88.90625 57.046875 C 88.347656 58.167969 86.75 58.167969 86.191406 57.046875 L 83.253906 51.160156 C 82.695312 50.035156 81.097656 50.035156 80.535156 51.160156 L 77.601562 57.042969 C 77.042969 58.167969 75.445312 58.167969 74.882812 57.042969 L 66.292969 39.824219 C 65.734375 38.703125 64.136719 38.703125 63.578125 39.824219 L 58.574219 49.851562 C 58.316406 50.363281 57.789062 50.691406 57.214844 50.691406 L 48.050781 50.691406 C 47.050781 50.691406 46.179688 51.460938 46.152344 52.460938 C 46.121094 53.496094 46.945312 54.34375 47.972656 54.34375 L 59.46875 54.34375 C 60.046875 54.34375 60.574219 54.019531 60.828125 53.503906 L 63.578125 47.996094 C 64.136719 46.871094 65.734375 46.871094 66.292969 47.996094 L 74.882812 65.210938 C 75.445312 66.335938 77.042969 66.335938 77.601562 65.210938 L 80.535156 59.328125 C 81.097656 58.207031 82.695312 58.207031 83.253906 59.328125 L 86.191406 65.214844 C 86.75 66.339844 88.347656 66.339844 88.90625 65.214844 L 97.496094 48 C 98.058594 46.878906 99.65625 46.875 100.214844 48 L 102.964844 53.507812 C 103.222656 54.023438 103.75 54.347656 104.324219 54.347656 L 118.316406 54.347656 C 118.316406 54.347656 118.316406 54.347656 118.320312 54.347656 L 118.324219 54.347656 C 118.4375 54.347656 118.546875 54.335938 118.652344 54.316406 C 118.65625 54.316406 118.667969 54.3125 118.671875 54.3125 C 118.78125 54.292969 118.886719 54.261719 118.988281 54.222656 C 118.996094 54.21875 119.003906 54.214844 119.015625 54.214844 C 119.113281 54.171875 119.210938 54.117188 119.300781 54.0625 C 119.3125 54.054688 119.320312 54.050781 119.328125 54.046875 C 119.425781 53.980469 119.519531 53.90625 119.601562 53.824219 C 119.605469 53.820312 119.605469 53.820312 119.609375 53.816406 L 124.023438 49.394531 C 129.242188 44.164062 132.292969 37.078125 132.234375 29.679688 C 132.171875 22.277344 129.179688 15.34375 123.804688 10.214844 Z M 25.023438 99.535156 C 25.023438 94.152344 29.394531 89.777344 34.761719 89.777344 C 40.128906 89.777344 44.496094 94.15625 44.496094 99.535156 C 44.496094 104.914062 40.128906 109.292969 34.761719 109.292969 C 29.394531 109.292969 25.023438 104.914062 25.023438 99.535156 Z M 25.023438 99.535156 " fill-opacity="1" fill-rule="nonzero"/></g></svg>